<svg width="132" height="134" viewBox="0 0 132 134" fill="none" xmlns="http://www.w3.org/2000/svg">
<path d="M67 5C20.5034 5 5 20.5034 5 67C5 113.497 20.5034 129 67 129C113.497 129 129 113.497 129 67" stroke="#202429" stroke-width="10" stroke-linecap="round" stroke-linejoin="round"/>
<path fill-rule="evenodd" clip-rule="evenodd" d="M117.46 15.414V15.414C110.804 9.52232 100.636 10.139 94.7445 16.7947C94.7445 16.7947 65.4604 49.8726 55.3058 61.3543C45.1378 72.8293 52.5912 88.6812 52.5912 88.6812C52.5912 88.6812 69.3748 93.9965 79.3886 82.6823C89.4092 71.3681 118.841 38.1294 118.841 38.1294C124.732 31.4737 124.109 21.3057 117.46 15.414Z" stroke="#202429" stroke-width="10" stroke-linecap="round" stroke-linejoin="round"/>
<path d="M87.1671 25.4479L111.263 46.7826" stroke="#202429" stroke-width="10" stroke-linecap="round" stroke-linejoin="round"/>
</svg>
